<svg width="642" height="734" viewBox="0 0 642 734" fill="none" xmlns="http://www.w3.org/2000/svg">
<path opacity="0.35" d="M50.1991 655.226C157.735 809.367 426.655 701.363 547.673 628.093L641.348 375.998C491.188 225.738 167.474 -57.4984 73.9027 11.6403C-43.0616 98.0636 42.9272 162.669 71.7144 305.083C100.502 447.498 -84.2204 462.549 50.1991 655.226Z" fill="url(#paint0_linear_228_3)"/>
<path d="M90.0453 472.444C115.314 615.837 339.509 627.688 448.449 615.689L596.52 469.117C540.035 314.544 404.988 9.91008 316.682 27.9611C206.3 50.5249 245.641 123.975 219.403 233.436C193.165 342.896 58.4594 293.202 90.0453 472.444Z" fill="url(#paint1_linear_228_3)"/>
<defs>
<linearGradient id="paint0_linear_228_3" x1="-32.7484" y1="84.7562" x2="488.864" y2="679.657" gradientUnits="userSpaceOnUse">
<stop stop-color="#0085FF"/>
<stop offset="1" stop-color="#0057FF"/>
</linearGradient>
<linearGradient id="paint1_linear_228_3" x1="217.888" y1="44.5394" x2="390.303" y2="632.733" gradientUnits="userSpaceOnUse">
<stop stop-color="#0085FF"/>
<stop offset="1" stop-color="#0057FF"/>
</linearGradient>
</defs>
</svg>
